<svg xmlns="http://www.w3.org/2000/svg" version="1.2" baseProfile="tiny" width="32" height="32" viewBox="0 0 200 200"><g transform="translate(0,10)" overflow="visible"><g id="SymbolModifier" fill="black" stroke="black" stroke-width="3"><g xmlns="http://www.w3.org/2000/svg"></g></g><g id="BaseGeometry" fill="rgba(0,226,110,1) " stroke="black" stroke-width="3"><g xmlns="http://www.w3.org/2000/svg"><polyline points="45,150,45,30,155,30,155,150"></polyline></g></g><g id="StatusGeometry" fill="none" stroke="rgba(239, 239, 239,1)" stroke-width="4" stroke-dasharray="4,4"></g><g id="AffliationDimensionGeometry" fill="black"><g xmlns="http://www.w3.org/2000/svg"></g></g><g id="Icon" fill="black" stroke="black" stroke-width="3" font-family="Arial" font-weight="bold"><g xmlns="http://www.w3.org/2000/svg"><path d="m 99.15625,58.1875 c -2.988505,0.764206 -2.46875,5.78125 -2.46875,5.78125 l -0.34375,16 -37.1875,36.53125 1.3125,4.5625 L 96.6875,96.59375 97,128.5625 l -8.46875,8.15625 0,4.5625 9.34375,-4.1875 c 0.678132,0.62239 1.84375,1.65625 1.84375,1.65625 0,0 1.23407,-1.08208 1.875,-1.65625 l 9.3125,4.1875 0,-4.5625 -8.46875,-8.15625 0.3125,-31.96875 36.21875,24.46875 1.3125,-4.5625 -37.1875,-36.53125 -0.34375,-16 c 0,0 0.51975,-5.017044 -2.46875,-5.78125 -0.434485,-0.06593 -0.743457,-0.06323 -1.125,0 z" stroke="none"></path></g></g></g></svg>
